<?xml version="1.0" encoding="UTF-8" standalone="no"?>
<svg
   xmlns:dc="http://purl.org/dc/elements/1.1/"
   xmlns:cc="http://creativecommons.org/ns#"
   xmlns:rdf="http://www.w3.org/1999/02/22-rdf-syntax-ns#"
   xmlns:svg="http://www.w3.org/2000/svg"
   xmlns="http://www.w3.org/2000/svg"
   xmlns:xlink="http://www.w3.org/1999/xlink"
   xmlns:sodipodi="http://sodipodi.sourceforge.net/DTD/sodipodi-0.dtd"
   xmlns:inkscape="http://www.inkscape.org/namespaces/inkscape"
   width="128.89491pt"
   version="1.1"
   height="129.53871pt"
   viewBox="0 0 128.89491 129.53872"
   id="svg4403"
   sodipodi:docname="logo.svg"
   inkscape:version="0.92.4 5da689c313, 2019-01-14">
  <metadata
     id="metadata4407">
    <rdf:RDF>
      <cc:Work
         rdf:about="">
        <dc:format>image/svg+xml</dc:format>
        <dc:type
           rdf:resource="http://purl.org/dc/dcmitype/StillImage" />
        <dc:title></dc:title>
      </cc:Work>
    </rdf:RDF>
  </metadata>
  <sodipodi:namedview
     pagecolor="#ffffff"
     bordercolor="#666666"
     borderopacity="1"
     objecttolerance="10"
     gridtolerance="10"
     guidetolerance="10"
     inkscape:pageopacity="0"
     inkscape:pageshadow="2"
     inkscape:window-width="1920"
     inkscape:window-height="1017"
     id="namedview4405"
     showgrid="false"
     inkscape:zoom="3.7092334"
     inkscape:cx="110.60664"
     inkscape:cy="99.805736"
     inkscape:window-x="1920"
     inkscape:window-y="30"
     inkscape:window-maximized="1"
     inkscape:current-layer="Background" />
  <defs
     id="defs4323">
    <path
       id="GlRobotoSlab-Regular72"
       d="M 0.346719,3.51078 V 2.89062 H 2.90047 V 3.51078 L 2.10453,3.6475 V 6.10344 H 5.55172 V 3.6475 L 4.75594,3.51078 V 2.89062 H 5.55172 6.51375 7.30953 V 3.51078 L 6.51375,3.6475 V 9.24797 L 7.30953,9.38469 V 10 H 4.75594 V 9.38469 L 5.55172,9.24797 V 6.86031 H 2.10453 V 9.24797 L 2.90047,9.38469 V 10 H 0.346719 V 9.38469 L 1.14266,9.24797 V 3.6475 Z"
       inkscape:connector-curvature="0" />
    <path
       id="GlRobotoSlab-Regular97"
       d="m 3.88187,10 c 0,0 -0.0439,-0.21484 -0.06843,-0.38578 0,0 -0.02438,-0.17094 -0.03407,-0.34172 0,0 -0.27843,0.35641 -0.69593,0.59328 0,0 -0.41735,0.23672 -0.8911,0.23672 0,0 -0.82515,0 -1.25484,-0.40281 0,0 -0.429688,-0.40281 -0.429688,-1.13531 0,0 0,-0.75188 0.607818,-1.15954 0,0 0.60796,-0.40781 1.66765,-0.40781 h 0.9911 V 6.38187 c 0,0 0,-0.4639 -0.29297,-0.73484 0,0 -0.29297,-0.27109 -0.81532,-0.27109 0,0 -0.3614,0 -0.63734,0.09281 0,0 -0.27578,0.09281 -0.44672,0.25391 L 1.47953,6.27922 H 0.737344 V 5.25391 c 0,0 0.361246,-0.28813 0.873906,-0.46141 0,0 0.51281,-0.17344 1.11344,-0.17344 0,0 0.89843,0 1.455,0.45906 0,0 0.55672,0.45891 0.55672,1.31344 v 2.54391 c 0,0 0,0.10266 0.00234,0.20031 0,0 0.0025,0.09766 0.01219,0.19531 l 0.39062,0.0536 V 10 H 3.88187 Z M 2.33406,9.29688 c 0,0 0.47844,0 0.87391,-0.22954 0,0 0.39562,-0.22953 0.56641,-0.55172 V 7.64641 H 2.74906 c 0,0 -0.59078,0 -0.93515,0.27343 0,0 -0.34422,0.27344 -0.34422,0.66407 0,0 0,0.34671 0.21484,0.52984 0,0 0.21485,0.18313 0.64953,0.18313 z"
       inkscape:connector-curvature="0" />
    <path
       id="GlRobotoSlab-Regular99"
       d="m 2.80766,9.35063 c 0,0 0.47843,0 0.84218,-0.29547 0,0 0.36391,-0.29547 0.36391,-0.72516 h 0.86422 l 0.00969,0.02938 c 0,0 0.02453,0.68359 -0.60782,1.21343 0,0 -0.63234,0.52969 -1.47218,0.52969 0,0 -1.15235,0 -1.76032,-0.75187 0,0 -0.607809,-0.75204 -0.607809,-1.88969 V 7.25578 c 0,0 0,-1.12781 0.610309,-1.88219 0,0 0.61032,-0.75453 1.75782,-0.75453 0,0 0.63468,0 1.14,0.21 0,0 0.50546,0.21 0.8375,0.57625 l 0.0439,1.17188 H 4.0625 l -0.21,-0.83016 c 0,0 -0.17078,-0.16594 -0.43938,-0.26844 0,0 -0.26859,-0.10265 -0.60546,-0.10265 0,0 -0.75688,0 -1.08157,0.54453 0,0 -0.32468,0.54437 -0.32468,1.33531 v 0.20516 c 0,0 0,0.81047 0.32218,1.35015 0,0 0.32235,0.53954 1.08407,0.53954 z"
       inkscape:connector-curvature="0" />
    <path
       id="GlRobotoSlab-Regular107"
       d="M 0.302812,3.00297 V 2.38281 H 2.06062 V 6.79688 H 2.67578 L 3.80375,5.40031 3.32031,5.33688 V 4.71672 H 5.53219 V 5.33688 L 4.88766,5.46391 3.49609,7.12406 5.19047,9.2675 5.79109,9.38469 V 10 H 3.59859 V 9.38469 L 4.09187,9.32125 2.69047,7.56344 H 2.06062 V 9.24797 L 2.85641,9.38469 V 10 H 0.302812 V 9.38469 L 1.09859,9.24797 V 3.13969 Z"
       inkscape:connector-curvature="0" />
    <path
       id="GlRobotoSlab-Regular83"
       d="M 5.49313,4.99016 H 4.76562 L 4.585,3.97453 c 0,0 -0.21969,-0.18547 -0.58594,-0.3075 0,0 -0.36625,-0.12219 -0.84968,-0.12219 0,0 -0.76657,0 -1.17672,0.32485 0,0 -0.41016,0.32468 -0.41016,0.84703 0,0 0,0.46391 0.4175,0.77406 0,0 0.4175,0.31 1.35016,0.54438 0,0 1.12296,0.27828 1.7064,0.82031 0,0 0.5836,0.54203 0.5836,1.34281 0,0 0,0.85938 -0.70078,1.38188 0,0 -0.70063,0.52234 -1.83344,0.52234 0,0 -0.82032,0 -1.4575,-0.26844 0,0 -0.63719,-0.26859 -1.037659,-0.70328 V 7.80766 H 1.31344 l 0.18562,1.02046 c 0,0 0.27828,0.22954 0.66406,0.3761 0,0 0.38579,0.14641 0.92282,0.14641 0,0 0.7275,0 1.14984,-0.30766 0,0 0.4225,-0.30766 0.4225,-0.835 0,0 0,-0.48828 -0.36625,-0.81781 0,0 -0.36625,-0.32969 -1.29391,-0.55422 0,0 -1.12796,-0.2686 -1.76281,-0.79094 0,0 -0.634685,-0.5225 -0.634685,-1.31359 0,0 0,-0.835 0.707965,-1.38907 0,0 0.70797,-0.55422 1.84079,-0.55422 0,0 0.74718,0 1.35984,0.25641 0,0 0.61281,0.25625 0.98391,0.6225 z"
       inkscape:connector-curvature="0" />
    <path
       id="GlRobotoSlab-Regular111"
       d="m 0.439531,7.30953 c 0,0 0,-1.17187 0.634689,-1.93109 0,0 0.63484,-0.75938 1.72359,-0.75938 0,0 1.09375,0 1.73094,0.75688 0,0 0.63734,0.75687 0.63734,1.93359 v 0.1075 c 0,0 0,1.18156 -0.63484,1.9336 0,0 -0.63469,0.75187 -1.72359,0.75187 0,0 -1.0986,0 -1.73344,-0.75438 0,0 -0.634689,-0.75437 -0.634689,-1.93109 v -0.1075 z m 0.961879,0.1075 c 0,0 0,0.83985 0.3539,1.38672 0,0 0.35407,0.54688 1.05235,0.54688 0,0 0.68359,0 1.04,-0.54688 0,0 0.3564,-0.54687 0.3564,-1.38672 v -0.1075 c 0,0 0,-0.83 -0.3564,-1.38172 0,0 -0.35641,-0.55187 -1.04985,-0.55187 0,0 -0.69328,0 -1.04484,0.55187 0,0 -0.35156,0.55172 -0.35156,1.38172 z"
       inkscape:connector-curvature="0" />
    <path
       id="GlRobotoSlab-Regular116"
       d="M 2.11422,3.44234 V 4.71672 H 3.11531 V 5.42969 H 2.11422 v 3.20797 c 0,0 0,0.37109 0.15375,0.5225 0,0 0.15391,0.1514 0.40781,0.1514 0,0 0.12703,0 0.28563,-0.02203 0,0 0.15875,-0.02203 0.26609,-0.04641 l 0.13188,0.65922 c 0,0 -0.13672,0.08782 -0.40047,0.14396 0,0 -0.2636,0.0562 -0.52719,0.0562 0,0 -0.58594,0 -0.93266,-0.35391 0,0 -0.34672,-0.35406 -0.34672,-1.11093 V 5.42969 H 0.317344 V 4.71672 H 1.15234 V 3.44234 Z"
       inkscape:connector-curvature="0" />
    <path
       id="GlRobotoSlab-Regular104"
       d="M 0.302812,9.38469 1.09859,9.24797 V 3.13969 L 0.302812,3.00297 V 2.38281 H 2.06062 v 3.03703 c 0,0 0.27344,-0.38078 0.66891,-0.59078 0,0 0.39547,-0.21 0.87891,-0.21 0,0 0.84953,0 1.31828,0.50782 0,0 0.46875,0.50781 0.46875,1.5625 V 9.24797 L 6.19141,9.38469 V 10 H 3.63766 V 9.38469 L 4.43359,9.24797 V 6.67969 c 0,0 0,-0.65438 -0.28078,-0.96688 0,0 -0.28078,-0.3125 -0.83734,-0.3125 0,0 -0.39547,0 -0.72031,0.18813 0,0 -0.32469,0.18797 -0.53454,0.51015 V 9.24797 L 2.85641,9.38469 V 10 H 0.302812 Z"
       inkscape:connector-curvature="0" />
    <path
       id="GlRobotoSlab-Regular101"
       d="m 2.84672,10.1025 c 0,0 -1.10359,0 -1.75547,-0.73484 0,0 -0.651719,-0.73485 -0.651719,-1.90672 V 7.24609 c 0,0 0,-1.12796 0.671249,-1.8775 0,0 0.67141,-0.74953 1.58938,-0.74953 0,0 1.06453,0 1.61375,0.64453 0,0 0.54937,0.64454 0.54937,1.71875 V 7.58297 H 1.43562 L 1.42094,7.60734 c 0,0 0.01468,0.76172 0.38578,1.2525 0,0 0.37109,0.49079 1.04,0.49079 0,0 0.48828,0 0.85687,-0.13922 0,0 0.36875,-0.13922 0.63719,-0.38329 l 0.37609,0.625 c 0,0 -0.28328,0.27344 -0.74968,0.46141 0,0 -0.46625,0.18797 -1.12047,0.18797 z M 2.70016,5.37594 c 0,0 -0.48329,0 -0.82516,0.40781 0,0 -0.34172,0.40766 -0.41984,1.02281 L 1.46484,6.83109 H 3.90141 V 6.70406 c 0,0 0,-0.5664 -0.30282,-0.94719 0,0 -0.30265,-0.38093 -0.89843,-0.38093 z"
       inkscape:connector-curvature="0" />
    <path
       id="GlRobotoSlab-Regular109"
       d="M 0.244219,9.38469 1.04,9.24797 V 5.47359 L 0.244219,5.33688 V 4.71672 H 1.90437 l 0.06344,0.68859 c 0,0 0.25391,-0.37609 0.65422,-0.58109 0,0 0.40047,-0.20516 0.92781,-0.20516 0,0 0.52735,0 0.90579,0.24422 0,0 0.37843,0.24406 0.56875,0.73235 0,0 0.24906,-0.44922 0.65921,-0.71282 0,0 0.41016,-0.26375 0.95703,-0.26375 0,0 0.81063,0 1.27938,0.55422 0,0 0.46875,0.55422 0.46875,1.6675 V 9.24797 L 9.18453,9.38469 V 10 H 6.62594 V 9.38469 L 7.42188,9.24797 V 6.83109 c 0,0 0,-0.78125 -0.2686,-1.10593 0,0 -0.26844,-0.32485 -0.79578,-0.32485 0,0 -0.50297,0 -0.80812,0.35406 0,0 -0.30516,0.35407 -0.35407,0.8911 v 2.6025 L 5.99125,9.38469 V 10 H 3.4375 V 9.38469 L 4.23344,9.24797 V 6.83109 c 0,0 0,-0.74218 -0.27594,-1.0864 0,0 -0.27578,-0.34438 -0.79828,-0.34438 0,0 -0.43953,0 -0.72281,0.18078 0,0 -0.28313,0.18063 -0.43438,0.50782 V 9.24797 L 2.79781,9.38469 V 10 H 0.244219 Z"
       inkscape:connector-curvature="0" />
    <path
       id="GlRobotoSlab-Regular112"
       d="M 0.317344,11.4111 1.11328,11.2744 V 5.47359 L 0.317344,5.33688 V 4.71672 H 1.93844 l 0.08797,0.64453 c 0,0 0.26359,-0.36125 0.64203,-0.55172 0,0 0.37844,-0.19047 0.87656,-0.19047 0,0 0.98141,0 1.52578,0.77891 0,0 0.54453,0.77875 0.54453,2.05812 v 0.1025 c 0,0 0,1.1425 -0.54687,1.84329 0,0 -0.54688,0.70062 -1.50891,0.70062 0,0 -0.48828,0 -0.85687,-0.16359 0,0 -0.3686,-0.1636 -0.6275,-0.48579 v 1.82128 l 0.79593,0.1367 v 0.6201 H 0.317344 V 11.4111 Z M 4.64844,7.45609 c 0,0 0,-0.90343 -0.35156,-1.47953 0,0 -0.35157,-0.57625 -1.04485,-0.57625 0,0 -0.41016,0 -0.70312,0.18563 0,0 -0.29297,0.18547 -0.47375,0.50781 v 2.57328 c 0,0 0.18078,0.32703 0.47125,0.50531 0,0 0.29047,0.17829 0.71531,0.17829 0,0 0.68359,0 1.03516,-0.49797 0,0 0.35156,-0.49813 0.35156,-1.29407 z"
       inkscape:connector-curvature="0" />
    <path
       id="GlRobotoSlab-Regular117"
       d="m 4.21391,9.21875 c 0,0 -0.24907,0.42484 -0.64219,0.65437 0,0 -0.39297,0.22938 -0.90563,0.22938 0,0 -0.85937,0 -1.34281,-0.55172 0,0 -0.483436,-0.55172 -0.483436,-1.71875 V 5.47359 L 0.234375,5.33688 V 4.71672 H 0.839844 1.80172 v 3.125 c 0,0 0,0.84484 0.24906,1.16219 0,0 0.24906,0.31734 0.77641,0.31734 0,0 0.51265,0 0.84703,-0.2075 0,0 0.33453,-0.2075 0.50547,-0.58844 V 5.47359 L 3.47172,5.33688 V 4.71672 H 4.17969 5.14156 V 9.24797 L 5.74703,9.38469 V 10 H 4.27734 Z"
       inkscape:connector-curvature="0" />
    <path
       id="GlRobotoSlab-Regular114"
       d="M 0.434531,5.33688 V 4.71672 H 2.08984 l 0.09282,0.76672 c 0,0 0.22453,-0.40532 0.55406,-0.63485 0,0 0.32969,-0.22953 0.75453,-0.22953 0,0 0.11234,0 0.23188,0.01719 0,0 0.11968,0.01703 0.18312,0.03656 L 3.77937,5.56641 3.2325,5.53703 c 0,0 -0.38094,0 -0.63969,0.17828 0,0 -0.25875,0.17828 -0.40047,0.50047 V 9.24797 L 2.98828,9.38469 V 10 H 0.434531 V 9.38469 L 1.23047,9.24797 V 5.47359 Z"
       inkscape:connector-curvature="0" />
    <path
       id="GlRobotoSlab-Regular115"
       d="M 4.4775,6.37688 H 3.75484 L 3.59859,5.74219 c 0,0 -0.17578,-0.1661 -0.44187,-0.2661 0,0 -0.2661,-0.10015 -0.60297,-0.10015 0,0 -0.51266,0 -0.76172,0.22468 0,0 -0.24906,0.22454 -0.24906,0.54188 0,0 0,0.3125 0.21969,0.49328 0,0 0.21984,0.18063 0.89359,0.32219 0,0 1.00094,0.21484 1.48922,0.58359 0,0 0.48828,0.3686 0.48828,0.98875 0,0 0,0.70313 -0.56891,1.13766 0,0 -0.56875,0.43453 -1.48672,0.43453 0,0 -0.60062,0 -1.07921,-0.13906 0,0 -0.47844,-0.13922 -0.854379,-0.40297 L 0.639687,8.35453 H 1.36234 L 1.54297,9.0625 c 0,0 0.16609,0.15141 0.45172,0.21984 0,0 0.28562,0.06829 0.58343,0.06829 0,0 0.51266,0 0.80313,-0.20751 0,0 0.29063,-0.20765 0.29063,-0.54453 0,0 0,-0.31734 -0.24172,-0.52234 0,0 -0.24172,-0.20516 -0.91547,-0.35656 0,0 -0.96188,-0.21 -1.45016,-0.57125 0,0 -0.48828,-0.36141 -0.48828,-0.97656 0,0 0,-0.64454 0.54922,-1.0986 0,0 0.54937,-0.45422 1.42828,-0.45422 0,0 0.60062,0 1.07906,0.15625 0,0 0.4786,0.15625 0.79594,0.43469 z"
       inkscape:connector-curvature="0" />
    <path
       id="GlRobotoSlab-Regular105"
       d="M 0.434531,9.38469 1.23047,9.24797 V 5.47359 L 0.434531,5.33688 V 4.71672 H 2.19234 V 9.24797 L 2.98828,9.38469 V 10 H 0.434531 V 9.38469 Z M 2.19234,3.36422 H 1.23047 V 2.38281 h 0.96187 z"
       inkscape:connector-curvature="0" />
    <path
       id="GlRobotoSlab-Regular110"
       d="M 0.292969,9.38469 1.08891,9.24797 V 5.47359 L 0.292969,5.33688 V 4.71672 H 1.94828 l 0.06828,0.78625 c 0,0 0.26375,-0.42 0.66172,-0.65188 0,0 0.39797,-0.23203 0.90578,-0.23203 0,0 0.85438,0 1.32313,0.50063 0,0 0.46875,0.50047 0.46875,1.54531 V 9.24797 L 6.17188,9.38469 V 10 H 3.61813 V 9.38469 L 4.41406,9.24797 V 6.68453 c 0,0 0,-0.69828 -0.27593,-0.99125 0,0 -0.27579,-0.29297 -0.84219,-0.29297 0,0 -0.415,0 -0.73485,0.20031 0,0 -0.31984,0.20016 -0.51031,0.54688 V 9.24797 L 2.84672,9.38469 V 10 H 0.292969 Z"
       inkscape:connector-curvature="0" />
    <path
       id="GlRobotoSlab-Regular121"
       d="M 5.45406,5.33688 4.98047,5.41016 2.96875,10.8106 c 0,0 -0.20016,0.5322 -0.57625,0.9277 0,0 -0.37594,0.3954 -1.01063,0.3954 0,0 -0.11234,0 -0.29296,-0.0268 0,0 -0.180629,-0.0267 -0.278285,-0.0513 l 0.097656,-0.7567 c 0,0 -0.029375,-0.005 0.173279,0.0097 0,0 0.20266,0.0147 0.25641,0.0147 0,0 0.3075,0 0.49797,-0.2661 0,0 0.19047,-0.2661 0.33203,-0.6128 L 2.3975,9.8975 0.654375,5.415 0.170937,5.33688 V 4.71672 H 2.30469 V 5.33688 L 1.70906,5.43453 2.62203,8.04203 2.79781,8.71578 H 2.82719 L 3.92578,5.43453 3.32516,5.33688 V 4.71672 h 2.1289 z"
       inkscape:connector-curvature="0" />
    <clipPath
       id="Clip0">
      <path
         d="M 0,0 H 169.5 V 169 H 0 Z"
         transform="translate(1.25,0.25)"
         id="path4317"
         inkscape:connector-curvature="0" />
    </clipPath>
    <clipPath
       id="Clip1">
      <path
         d="M 0,0 H 115.23 V 103.945 H 0 Z"
         transform="translate(33.9589,38.993)"
         id="path4320"
         inkscape:connector-curvature="0" />
    </clipPath>
    <linearGradient
       id="linearGradient4717">
      <stop
         id="stop4719"
         style="stop-color:#dfe0db"
         offset="0" />
      <stop
         id="stop4725"
         style="stop-color:#787976"
         offset=".49415" />
      <stop
         id="stop4727"
         style="stop-color:#81817e"
         offset=".60805" />
      <stop
         id="stop4721"
         style="stop-color:#8a8a87"
         offset="1" />
    </linearGradient>
    <clipPath
       id="clipPath4834"
       clipPathUnits="userSpaceOnUse">
      <path
         id="path4836"
         style="fill:none;stroke:#000000;stroke-width:0.1"
         d="m 309.12,87.98 -23.852,-5.6221 c 0,0 -14.738,22.054 -20.585,33.916 -2.9592,6.0026 -6.1776,12.112 -7.2702,18.715 -0.89361,5.3999 -0.48164,11.06 0.6982,16.405 1.2912,5.8489 2.3253,8.9411 6.865,16.606 2.6858,4.5349 10.643,11.693 10.643,11.693 l -2.0928,-35.262 c -5.499,-0.97776 -4.8527,-8.6815 -2.8934,-11.636 l 11.479,-17.31 c 1.6564,-2.4977 8.7188,-3.4552 12.352,-0.79614 3.6333,2.659 4.9655,8.5146 3.5422,12.606 -1.4232,4.0915 -8.9579,7.0185 -8.9579,7.0185 0,0 1.4462,3.4093 7.5451,2.2673 5.7178,-1.0707 9.7118,-4.7838 12.302,-11.233 0.92284,-2.2978 1.9307,-4.6288 2.225,-7.0874 1.2022,-10.044 -1.9996,-30.281 -1.9996,-30.281 z"
         sodipodi:nodetypes="ccaaasccsszzcssac"
         inkscape:transform-center-y="47.582617"
         inkscape:connector-curvature="0"
         inkscape:transform-center-x="0.6280464" />
    </clipPath>
    <filter
       style="color-interpolation-filters:sRGB"
       id="filter4838"
       height="1.1676"
       width="1.2248"
       y="-0.083788"
       x="-0.11238"
       inkscape:collect="always">
      <feGaussianBlur
         id="feGaussianBlur4840"
         stdDeviation="0.85637256"
         inkscape:collect="always" />
    </filter>
    <filter
       style="color-interpolation-filters:sRGB"
       id="filter4842"
       height="1.1116"
       width="1.3393"
       y="-0.055817999"
       x="-0.16966"
       inkscape:collect="always">
      <feGaussianBlur
         id="feGaussianBlur4844"
         stdDeviation="1.4232833"
         inkscape:collect="always" />
    </filter>
    <linearGradient
       id="linearGradient5625">
      <stop
         id="stop5627"
         style="stop-color:#dfe0db"
         offset="0" />
      <stop
         id="stop5629"
         style="stop-color:#787976"
         offset=".49415" />
      <stop
         id="stop5631"
         style="stop-color:#81817e"
         offset=".60805" />
      <stop
         id="stop5633"
         style="stop-color:#8a8a87;stop-opacity:.604"
         offset="1" />
    </linearGradient>
    <clipPath
       id="clipPath4611"
       clipPathUnits="userSpaceOnUse">
      <path
         id="path4613"
         d="m 452.88,-150.77 2.6722,-114.7 5.7555,-10.072 h 1.4389 l 6.1666,10.894 v 113.26 z"
         sodipodi:nodetypes="ccccccc"
         style="fill:none;stroke:#000000;stroke-width:0.1"
         inkscape:connector-curvature="0" />
    </clipPath>
    <clipPath
       id="clipPath4688"
       clipPathUnits="userSpaceOnUse">
      <path
         id="path4690"
         style="fill:none;stroke:#3d3d3d;stroke-width:0.1"
         d="m 445.16,-168.31 c 0,0 13.67,-7.5451 17.162,-11.321 3.492,-3.7757 29.974,-33.402 36.377,-41.535 6.4031,-8.1334 19.5,-24.109 25.318,-28.464 5.8181,-4.3549 16.581,-11.903 16.581,-11.903 0,0 -7.8652,17.144 -17.471,30.216 -9.6055,13.072 -34.925,42.699 -40.164,49.38 -5.2389,6.681 -17.173,22.658 -17.173,22.658 z"
         inkscape:transform-center-x="-43.023256"
         inkscape:transform-center-y="-55.232558"
         inkscape:connector-curvature="0" />
    </clipPath>
    <filter
       style="color-interpolation-filters:sRGB"
       id="filter5285"
       height="1.0682"
       width="1.5006"
       y="-0.034086"
       x="-0.25029001"
       inkscape:collect="always">
      <feGaussianBlur
         id="feGaussianBlur5287"
         stdDeviation="0.37513656"
         inkscape:collect="always" />
    </filter>
    <radialGradient
       id="radialGradient8644"
       gradientUnits="userSpaceOnUse"
       cy="-88.252998"
       cx="220.10001"
       gradientTransform="matrix(1.056,-0.10851,0.031133,0.30297,-9.576,-99.122)"
       r="100.91"
       inkscape:collect="always">
      <stop
         id="stop5347"
         style="stop-color:#d9d9d9"
         offset="0" />
      <stop
         id="stop5349"
         style="stop-color:#d9d9d9;stop-opacity:0"
         offset="1" />
    </radialGradient>
    <clipPath
       id="clipPath5373"
       clipPathUnits="userSpaceOnUse">
      <path
         id="path5375"
         d="m 147.69,-160.65 c 1.3741,0.27481 4.7696,-9.625 27.085,-17.953 25.514,-9.5214 51.404,-7.6287 74.659,-8.2101 23.256,-0.5814 33.14,-0.5814 50.581,-1.1628 17.442,-0.5814 41.837,-2.1909 41.837,-2.1909 l -2.302,30.098 -41.743,3.194 c 0,0 0.18793,-2.4423 -4.4632,-2.4423 -4.6512,0 -4.8567,1.9145 -4.8567,1.9145 0,0 -13.323,1.1261 -31.495,3.7292 -8.5678,1.2273 -28.817,4.5806 -50.851,4.8214 -16.288,0.17802 -26.914,0.34058 -39.705,-4.892 -12.791,-5.23258 -18.746,-6.9062 -18.746,-6.9062 z"
         sodipodi:nodetypes="cssscccscsssc"
         style="opacity:0.60153001;fill:none;stroke:#1f1f1f;stroke-width:0.1"
         inkscape:connector-curvature="0" />
    </clipPath>
    <filter
       style="color-interpolation-filters:sRGB"
       id="filter5359"
       inkscape:collect="always">
      <feGaussianBlur
         id="feGaussianBlur5361"
         stdDeviation="1.1777015"
         inkscape:collect="always" />
    </filter>
    <radialGradient
       id="radialGradient8648"
       gradientUnits="userSpaceOnUse"
       cy="-69.049004"
       cx="526.35999"
       gradientTransform="matrix(0.92336,-0.41186,0.35677,0.79984,64.973,199.26)"
       r="17.113001"
       inkscape:collect="always">
      <stop
         id="stop4159"
         style="stop-color:#000000"
         offset="0" />
      <stop
         id="stop4161"
         style="stop-color:#000000;stop-opacity:0"
         offset="1" />
    </radialGradient>
    <filter
       style="color-interpolation-filters:sRGB"
       id="filter4150"
       height="1.7137001"
       width="1.1443"
       y="-0.35685"
       x="-0.072126999"
       inkscape:collect="always">
      <feGaussianBlur
         id="feGaussianBlur4152"
         stdDeviation="0.56316498"
         inkscape:collect="always" />
    </filter>
    <linearGradient
       id="linearGradient8656"
       y2="715.25"
       gradientUnits="userSpaceOnUse"
       x2="1478.1"
       gradientTransform="matrix(0.10677925,-0.01721882,0.01721882,0.10677925,-39.400163,436.65883)"
       y1="715.25"
       x1="1342.5"
       inkscape:collect="always">
      <stop
         id="stop4719-4"
         style="stop-color:#dfe0db"
         offset="0" />
      <stop
         id="stop4725-6"
         style="stop-color:#787976"
         offset=".49415" />
      <stop
         id="stop4727-9"
         style="stop-color:#81817e"
         offset=".60805" />
      <stop
         id="stop4721-7"
         style="stop-color:#8a8a87"
         offset="1" />
    </linearGradient>
    <linearGradient
       id="linearGradient3905"
       inkscape:collect="always">
      <stop
         id="stop3907"
         style="stop-color:#ffffff"
         offset="0" />
      <stop
         id="stop3909"
         style="stop-color:#ffffff;stop-opacity:0"
         offset="1" />
    </linearGradient>
    <filter
       style="color-interpolation-filters:sRGB"
       id="filter3913"
       height="1.286"
       width="1.0412"
       y="-0.14298999"
       x="-0.020592"
       inkscape:collect="always">
      <feGaussianBlur
         id="feGaussianBlur3915"
         stdDeviation="0.3821076"
         inkscape:collect="always" />
    </filter>
    <radialGradient
       id="radialGradient8662"
       xlink:href="#linearGradient3905"
       gradientUnits="userSpaceOnUse"
       cy="109.63"
       cx="188.89999"
       gradientTransform="matrix(1.9968,8.2636995e-8,0,0.09919,-172.42,122.86)"
       r="22.767"
       inkscape:collect="always" />
    <radialGradient
       id="radialGradient8664"
       gradientUnits="userSpaceOnUse"
       cy="121.8"
       cx="299.26999"
       gradientTransform="matrix(1,0,0,0.039297,68.605,-30.612)"
       r="80.336998"
       inkscape:collect="always">
      <stop
         id="stop3929-9"
         style="stop-color:#ffffff"
         offset="0" />
      <stop
         id="stop3931-1"
         style="stop-color:#ffffff;stop-opacity:0"
         offset="1" />
    </radialGradient>
    <filter
       style="color-interpolation-filters:sRGB"
       id="filter3923"
       height="7.4198999"
       width="1.0240999"
       y="-3.21"
       x="-0.012045"
       inkscape:collect="always">
      <feGaussianBlur
         id="feGaussianBlur3925"
         stdDeviation="0.7776163"
         inkscape:collect="always" />
    </filter>
    <radialGradient
       id="radialGradient8666"
       gradientUnits="userSpaceOnUse"
       cy="-101.24"
       cx="502.34"
       gradientTransform="matrix(0.69003,0.0017145,-0.0018106,0.72871,116.18,55.785)"
       r="14.008"
       inkscape:collect="always">
      <stop
         id="stop3961"
         style="stop-color:#fbfbfb"
         offset="0" />
      <stop
         id="stop3963"
         style="stop-color:#fbfbfb;stop-opacity:0"
         offset="1" />
    </radialGradient>
    <filter
       style="color-interpolation-filters:sRGB"
       id="filter3979"
       inkscape:collect="always">
      <feGaussianBlur
         id="feGaussianBlur3981"
         stdDeviation="0.37963568"
         inkscape:collect="always" />
    </filter>
    <filter
       style="color-interpolation-filters:sRGB"
       id="filter8490"
       inkscape:collect="always">
      <feGaussianBlur
         id="feGaussianBlur8492"
         stdDeviation="0.52629456"
         inkscape:collect="always" />
    </filter>
  </defs>
  <g
     id="Background"
     transform="translate(-6.6830752,-7.1128321)">
    <g
       id="Group7"
       clip-path="url(#Clip0)"
       transform="matrix(0.76044196,0,0,0.76650128,5.7325228,6.9212068)">
      <path
         style="fill:#372d43;fill-rule:evenodd;stroke:none"
         id="Copy of  circle"
         d="M 169.5,84.5 C 169.5,131.17 131.558,169 84.75,169 37.9439,169 0,131.17 0,84.5 0,37.832 37.9439,0 84.75,0 131.558,0 169.5,37.832 169.5,84.5 Z"
         transform="translate(1.25,0.25)"
         inkscape:connector-curvature="0" />
    </g>
    <g
       id="g4780"
       transform="matrix(-0.72343637,1.3435671,-1.3435671,-0.72343637,814.94112,282.78123)"
       style="fill:#bdafc9;fill-opacity:1">
      <g
         transform="matrix(-0.03104871,-0.19254177,-0.15758462,0.02541153,93.568765,571.54662)"
         id="g4314"
         style="fill:#bdafc9;fill-opacity:1">
        <g
           id="g4628"
           style="fill:#bdafc9;fill-opacity:1">
          <g
             transform="matrix(0.83872,0.54456,-0.54456,0.83872,43.943,-152.57)"
             inkscape:transform-center-y="43.045368"
             inkscape:transform-center-x="24.960594"
             id="g4316"
             style="fill:#bdafc9;fill-opacity:1">
            <g
               id="g4318"
               style="fill:#bdafc9;fill-opacity:1" />
          </g>
          <g
             clip-path="url(#clipPath4834)"
             transform="translate(-9.8837,-178.2)"
             id="g4324"
             style="fill:#bdafc9;fill-opacity:1">
            <path
               d="m 270.93,137.5 c 0,0 -2.9716,0.0466 2.7616,-9.8837 7.1221,-10.756 11.195,-18.52 15.846,-12.996 4.6512,5.5233 -18.608,22.88 -18.608,22.88 z"
               inkscape:connector-curvature="0"
               style="fill:#bdafc9;stroke:#000000;stroke-width:1px;filter:url(#filter4838);fill-opacity:1"
               sodipodi:nodetypes="ccsc"
               id="path4326" />
            <path
               d="m 313.23,82.703 -4.1043,5.2767 c 0,0 2.2147,14.636 1.6333,24.084 -0.58139,9.4477 -1.3081,11.192 -3.7791,15.843 -2.4709,4.6512 -5.3779,16.279 -4.7965,15.988 0.5814,-0.2907 20.058,-21.657 20.058,-21.657 z"
               inkscape:connector-curvature="0"
               style="fill:#bdafc9;stroke:#ffffff;stroke-width:1px;filter:url(#filter4842);fill-opacity:1"
               id="path4328" />
          </g>
        </g>
      </g>
      <g
         transform="matrix(0.10677925,-0.01721882,0.01721882,0.10677925,-39.400165,436.65884)"
         style="fill:#bdafc9;fill-opacity:1"
         id="g5635">
        <path
           d="m 1154,835.89 c 0,0 41.459,-93.325 42.039,-104.4 0.5795,-11.079 -7.5519,-33.471 -6.4006,-43.144 1.1514,-9.6721 0.062,-7.6068 5.0129,-13.317 4.9512,-5.7098 25.407,-15.809 25.407,-15.809 l 21.455,-47.427 9.0336,-1.1292 43.474,-90.901 c 0,0 3.9264,-0.10455 0,26.536 -3.9264,26.64055 -35.186,118.14 -40.651,125.91 -5.465,7.7683 -21.766,4.3211 -29.359,9.0336 -7.593,4.7125 -29.924,95.982 -29.924,95.982 l 5.6461,5.646 5.646,20.326 -49.685,39.522 z"
           inkscape:connector-curvature="0"
           style="fill:#bdafc9;fill-opacity:1"
           sodipodi:nodetypes="czzzcccczzzccccc"
           id="path5637" />
      </g>
      <g
         transform="matrix(0.10677925,-0.01721882,0.01721882,0.10677925,-39.400165,436.65884)"
         style="fill:#bdafc9;fill-opacity:1"
         id="g5614" />
      <path
         inkscape:connector-curvature="0"
         style="fill:#bdafc9;stroke-width:0.22106591;fill-opacity:1"
         sodipodi:nodetypes="cssscccscsssc"
         d="m 92.072149,473.30272 c 0.118147,0.21722 -1.372863,1.30701 -1.609868,5.50322 -0.270983,4.79779 1.401403,9.06215 2.519046,13.01216 1.117709,3.94978 1.634384,5.61573 2.448084,8.58575 0.813788,2.97002 1.81778,7.16563 1.81778,7.16563 l 4.952319,-1.96134 -1.6438,-7.20232 c 0,0 -0.40181,0.15934 -0.64494,-0.62456 -0.243128,-0.7839 0.06878,-0.91862 0.06878,-0.91862 0,0 -0.506661,-2.30439 -1.017898,-5.50299 -0.241006,-1.50816 -0.734403,-5.09623 -1.84568,-8.82252 -0.821481,-2.75448 -1.349563,-4.55396 -2.900163,-6.43611 -1.550512,-1.8822 -2.143897,-2.79826 -2.143897,-2.79826 z"
         id="path5665" />
      <g
         transform="matrix(0.05227545,0.16853843,0.16853843,-0.05227545,99.893461,450.03774)"
         id="g4268"
         style="fill:#bdafc9;fill-opacity:1">
        <path
           transform="translate(-35.332,78.78)"
           inkscape:connector-curvature="0"
           sodipodi:nodetypes="cssscccscsssc"
           clip-path="url(#clipPath5373)"
           d="m 147.69,-160.65 c 1.3741,0.27481 4.7696,-9.625 27.085,-17.953 25.514,-9.5214 51.404,-7.6287 74.659,-8.2101 23.256,-0.5814 33.14,-0.5814 50.581,-1.1628 17.442,-0.5814 41.837,-2.1909 41.837,-2.1909 l -2.302,30.098 -41.743,3.194 c 0,0 0.18793,-2.4423 -4.4632,-2.4423 -4.6512,0 -4.8567,1.9145 -4.8567,1.9145 0,0 -13.323,1.1261 -31.495,3.7292 -8.5678,1.2273 -28.817,4.5806 -50.851,4.8214 -16.288,0.17802 -26.914,0.34058 -39.705,-4.892 -12.791,-5.23258 -18.746,-6.9062 -18.746,-6.9062 z"
           style="fill:#bdafc9;stroke:url(#radialGradient8644);stroke-width:4;filter:url(#filter5359);fill-opacity:1"
           id="path4276" />
      </g>
      <g
         transform="matrix(-0.12452863,-0.07607541,-0.07607541,0.12452863,178.94663,528.56478)"
         id="g4344"
         style="fill:#bdafc9;fill-opacity:1">
        <path
           inkscape:connector-curvature="0"
           transform="matrix(0.85261,-0.52255,0.52255,0.85261,104.94,264.13)"
           sodipodi:nodetypes="csc"
           d="m 508.95,-71.034 c 0,0 7.6921,1.5784 13.198,0.15958 7.6463,-1.9704 12.175,-5.8566 16.326,-11.453"
           style="opacity:0.53256998;fill:#bdafc9;stroke:url(#radialGradient8648);stroke-width:4;filter:url(#filter4150);fill-opacity:1"
           id="path4348" />
      </g>
      <g
         transform="matrix(0.05953526,-0.09029879,0.09029879,0.05953526,-38.1423,542.37034)"
         id="g5605"
         style="fill:#bdafc9;fill-opacity:1">
        <path
           d="m 976.34,564.92 c 0,0 -25.012,15.637 -29.157,29.184 -4.1445,13.547 -32.01,296.11 -32.01,296.11 l 58.709,1.0517 4.0294,-55.432 c 0,0 -12.039,-1.13 -12.604,-5.6966 -0.56482,-4.5665 12.604,-7.7211 12.604,-7.7211 l -12.604,1.2296 v -6.4915 l 12.604,-7.4562 -12.604,0.96462 v -6.4915 l 12.604,-7.1912 -12.604,0.69968 v -6.4915 l 12.604,-6.9263 -12.604,0.43475 v -6.4915 l 12.604,-6.6613 -12.604,0.16981 v -6.4915 l 12.604,-6.3964 -12.604,-0.0951 v -6.4915 l 12.604,-6.1315 -12.604,-0.36006 v -6.4915 l 12.604,-5.8665 -12.604,-0.62505 v -6.4915 l 12.604,-5.6016 -12.604,-0.88998 v -6.4915 l 12.604,-5.3366 -12.604,-1.155 v -6.4915 l 12.604,-5.0716 -12.604,-1.4199 v -6.4915 l 12.604,-4.8067 -12.604,-1.6848 v -6.4915 l 12.604,-4.5418 -12.604,-1.9498 v -6.4915 l 12.604,-4.2768 -12.604,-2.2147 v -6.4915 l 12.604,-4.0119 -12.604,-2.4796 v -6.4915 l 12.604,-3.747 -12.604,-2.7446 v -6.4915 l 12.604,-3.482 -12.604,-3.0095 v -6.4915 l 12.604,-3.2171 -12.604,-3.2744 v -6.4915 l 12.604,-2.6154 z"
           inkscape:connector-curvature="0"
           style="fill:#bdafc9;fill-opacity:1"
           sodipodi:nodetypes="czccczcccccccccccccccccccccccccccccccccccccccccccccccccccccccc"
           id="path5689" />
        <path
           transform="matrix(0.22908,1.6153,1.6153,-0.22908,1045.7,408.6)"
           inkscape:connector-curvature="0"
           sodipodi:nodetypes="cccc"
           d="m 255.92,-106.89 1.2333,26.414 2.3639,-0.30833 z"
           style="fill:#bdafc9;filter:url(#filter5285);fill-opacity:1"
           id="path4807" />
      </g>
      <path
         inkscape:connector-curvature="0"
         transform="matrix(0.13876086,-0.15569672,-0.15403651,-0.13773732,90.789967,558.14118)"
         sodipodi:nodetypes="csc"
         d="m 191.86,126.74 c 0,0 1.7442,5.5233 9.8837,7.2674 8.1395,1.7442 62.791,0.87209 62.791,0.87209"
         style="opacity:0.50191997;fill:#bdafc9;stroke:url(#radialGradient8662);stroke-width:3;filter:url(#filter3913);fill-opacity:1"
         id="path4390" />
      <path
         transform="matrix(0.13876086,-0.15569672,0.15403651,0.13773732,65.643941,552.56369)"
         inkscape:connector-curvature="0"
         sodipodi:nodetypes="cc"
         d="m 290.41,-25.535 154.94,-0.5814"
         style="opacity:0.61302999;fill:#bdafc9;stroke:url(#radialGradient8664);stroke-width:2;stroke-linecap:round;filter:url(#filter3923);fill-opacity:1"
         id="path4392" />
      <path
         transform="matrix(0.13876086,-0.15569672,0.15403651,0.13773732,65.643941,552.56369)"
         inkscape:connector-curvature="0"
         sodipodi:nodetypes="cc"
         d="m 445.35,-26.116 c 14.451,-4.6356 29.353,8.6607 23.844,24.667"
         style="opacity:0.7;fill:#bdafc9;stroke:url(#radialGradient8666);stroke-width:2;filter:url(#filter3979);fill-opacity:1"
         id="path4394" />
      <g
         transform="matrix(0.09931828,-0.04763307,0.04763307,0.09931828,51.174294,434.73998)"
         id="g8502"
         style="fill:#bdafc9;fill-opacity:1">
        <circle
           r="8.7715759"
           cy="604.36206"
           cx="236.83255"
           transform="translate(4.7384,15.992)"
           style="fill:#bdafc9;filter:url(#filter8490);fill-opacity:1"
           id="path7687" />
        <g
           id="g5551"
           style="fill:#bdafc9;fill-opacity:1">
          <path
             id="path4320-7"
             style="fill:#bdafc9;fill-opacity:1"
             d="m 248.08,-86.729 -23.067,8.2737 c 0,0 -0.351,26.523 1.2038,39.656 0.7868,6.646 1.4145,13.523 4.0936,19.655 2.1911,5.0156 5.6191,9.5389 9.5192,13.379 4.268,4.2025 6.8193,6.2328 14.801,10.19 4.7222,2.3409 15.294,4.0118 15.294,4.0118 l -20.96,-28.436 c -5.1446,2.1745 -8.7977,-4.6388 -8.7633,-8.1837 l 0.20168,-20.769 c 0.0291,-2.9969 5.4311,-7.6458 9.9264,-7.3942 4.4953,0.25162 8.8014,4.4373 9.8358,8.644 1.0344,4.2067 -3.6912,10.765 -3.6912,10.765 0,0 3.0696,2.0719 7.5629,-2.2071 4.2126,-4.0117 5.5404,-9.3009 4.2009,-16.12 -0.47727,-2.4297 -0.90134,-4.9337 -1.9934,-7.156 -4.4613,-9.0787 -18.167,-24.308 -18.167,-24.308 z"
             sodipodi:nodetypes="ccaaasccsszzcssac"
             inkscape:transform-center-y="47.582617"
             inkscape:connector-curvature="0"
             inkscape:transform-center-x="0.6280464"
             transform="matrix(-0.33596251,-1.6477677,-1.438811,0.58024283,44.019397,1274.3426)" />
          <path
             id="path4322"
             style="fill:#bdafc9;fill-opacity:1"
             inkscape:connector-curvature="0"
             d="m 226.82,-57.662 3.4884,36.628 c 0,0 2.4709,-5.6686 1.3081,-17.587 -1.1628,-11.919 -4.7965,-19.041 -4.7965,-19.041 z"
             transform="matrix(-0.33596251,-1.6477677,-1.438811,0.58024283,44.019397,1274.3426)" />
          <path
             id="path2997"
             sodipodi:nodetypes="czczcccc"
             style="fill:#bdafc9;stroke-width:0.22106591;fill-opacity:1"
             inkscape:connector-curvature="0"
             d="m 100.73793,470.28959 c 0,0 -0.50076,1.01255 -0.26141,3.80366 0.23935,2.79111 3.08542,12.62397 3.08542,12.62397 0,0 1.35604,-0.16897 2.52192,0.99294 1.16597,1.16192 2.64837,6.65851 2.64837,6.65851 l 1.03549,-0.32654 -3.55606,-10.54683 z"
             transform="matrix(8.1857769,3.9259006,-3.9259006,8.1857769,1287.8446,-3759.5896)" />
          <path
             id="path2995"
             d="m 1154,835.89 c 0,0 41.459,-93.325 42.039,-104.4 0.5795,-11.079 -7.5519,-33.471 -6.4006,-43.144 1.1514,-9.6721 0.062,-7.6068 5.0129,-13.317 4.9512,-5.7098 25.407,-15.809 25.407,-15.809 l 21.455,-47.427 9.0336,-1.1292 43.474,-90.901 c 0,0 3.9264,-0.10455 0,26.536 -3.9264,26.64055 -35.186,118.14 -40.651,125.91 -5.465,7.7683 -21.766,4.3211 -29.359,9.0336 -7.593,4.7125 -29.924,95.982 -29.924,95.982 l 5.6461,5.646 5.646,20.326 -49.685,39.522 z"
             sodipodi:nodetypes="czzzcccczzzccccc"
             style="fill:#bdafc9;fill-opacity:1"
             inkscape:connector-curvature="0"
             transform="matrix(0.94167053,0.27825532,-0.27825532,0.94167053,-748.95558,-339.87896)" />
          <path
             id="path4270"
             d="m 112.79,-81.395 c 1.3741,0.27481 4.7696,-9.6251 27.085,-17.953 25.514,-9.5214 51.404,-7.6287 74.659,-8.2101 23.256,-0.5814 33.14,-0.5814 50.581,-1.1628 17.442,-0.5814 41.837,-2.1909 41.837,-2.1909 l -2.302,30.098 -41.743,3.194 c 0,0 0.18793,-2.4423 -4.4632,-2.4423 -4.6512,0 -4.8567,1.9145 -4.8567,1.9145 0,0 -13.323,1.1261 -31.495,3.7292 -8.5678,1.2273 -28.817,4.5806 -50.851,4.8214 -16.288,0.17802 -26.914,0.34057 -39.705,-4.892 -12.791,-5.23257 -18.746,-6.9062 -18.746,-6.9062 z"
             sodipodi:nodetypes="cssscccscsssc"
             style="opacity:0.60153001;fill:#bdafc9;fill-opacity:1"
             inkscape:connector-curvature="0"
             transform="matrix(-0.23374993,1.5848462,1.5848462,0.23374993,338.74674,316.49066)" />
          <path
             id="path4272"
             d="m 255.92,-106.89 1.2333,26.414 2.3639,-0.30833 z"
             sodipodi:nodetypes="cccc"
             style="fill:#bdafc9;filter:url(#filter5285);fill-opacity:1"
             inkscape:connector-curvature="0"
             transform="matrix(-0.23374993,1.5848462,1.5848462,0.23374993,338.74674,316.49066)" />
          <path
             id="path4274"
             d="m 144.09,-98.981 38.233,-5.3444 c 0,0 -6.9888,4.3166 -15.828,5.55 -8.8388,1.2333 -22.405,-0.20556 -22.405,-0.20556 z"
             style="fill:#bdafc9;fill-opacity:1"
             inkscape:connector-curvature="0"
             transform="matrix(-0.23374993,1.5848462,1.5848462,0.23374993,338.74674,316.49066)" />
          <path
             id="path4346"
             d="m 505.52,-104.65 68.605,-2.6163 27.326,4.3605 1.1628,14.826 -22.093,6.1047 -29.07,-7.5581 c 0,0 -11.628,-1.4535 -16.57,3.1977 -4.9419,4.6512 -5.5232,9.3023 -5.5232,13.372 v 3.4884 l 8.7209,-0.5814 -3.4884,7.5581 -9.0116,0.5814 c 0,0 0.29069,-9.593 -3.4884,-9.593 -3.77909,0 -4.6512,10.174 -4.6512,10.174 l -31.977,-0.5814 z"
             sodipodi:nodetypes="ccccccssccccsccc"
             style="fill:#bdafc9;fill-opacity:1"
             inkscape:connector-curvature="0"
             transform="matrix(-0.72069909,-1.1116234,-1.1116234,0.72069909,677.56904,1269.6504)" />
          <path
             id="path2989"
             d="m 976.34,564.92 c 0,0 -25.012,15.637 -29.157,29.184 -4.1445,13.547 -32.01,296.11 -32.01,296.11 l 58.709,1.0517 4.0294,-55.432 c 0,0 -12.039,-1.13 -12.604,-5.6966 -0.56482,-4.5665 12.604,-7.7211 12.604,-7.7211 l -12.604,1.2296 v -6.4915 l 12.604,-7.4562 -12.604,0.96462 v -6.4915 l 12.604,-7.1912 -12.604,0.69968 v -6.4915 l 12.604,-6.9263 -12.604,0.43475 v -6.4915 l 12.604,-6.6613 -12.604,0.16981 v -6.4915 l 12.604,-6.3964 -12.604,-0.0951 v -6.4915 l 12.604,-6.1315 -12.604,-0.36006 v -6.4915 l 12.604,-5.8665 -12.604,-0.62505 v -6.4915 l 12.604,-5.6016 -12.604,-0.88998 v -6.4915 l 12.604,-5.3366 -12.604,-1.155 v -6.4915 l 12.604,-5.0716 -12.604,-1.4199 v -6.4915 l 12.604,-4.8067 -12.604,-1.6848 v -6.4915 l 12.604,-4.5418 -12.604,-1.9498 v -6.4915 l 12.604,-4.2768 -12.604,-2.2147 v -6.4915 l 12.604,-4.0119 -12.604,-2.4796 v -6.4915 l 12.604,-3.747 -12.604,-2.7446 v -6.4915 l 12.604,-3.482 -12.604,-3.0095 v -6.4915 l 12.604,-3.2171 -12.604,-3.2744 v -6.4915 l 12.604,-2.6154 z"
             sodipodi:nodetypes="czccczcccccccccccccccccccccccccccccccccccccccccccccccccccccccc"
             style="opacity:0.60199998;fill:#bdafc9;fill-opacity:1"
             inkscape:connector-curvature="0"
             transform="matrix(0.84184645,-0.50543626,0.50543626,0.84184645,-1153.6718,530.39007)" />
          <path
             id="path4809"
             style="fill:#bdafc9;fill-opacity:1"
             inkscape:connector-curvature="0"
             d="m 949.57,596.84 -5.4037,62.75 c 0,0 6.4288,-11.759 7.6744,-26.266 1.2456,-14.507 -2.2707,-36.485 -2.2707,-36.485 z"
             transform="matrix(0.84184645,-0.50543626,0.50543626,0.84184645,-1153.6718,530.39007)" />
          <path
             id="path7681"
             d="m 241.57,611.59 c -4.1388,0 -7.6085,2.8627 -8.5312,6.7188 h 17.062 c -0.92279,-3.856 -4.3924,-6.7188 -8.5312,-6.7188 z m -8.4062,11.25 c 1.0719,3.6335 4.4254,6.2812 8.4062,6.2812 3.9808,0 7.3343,-2.6477 8.4062,-6.2812 h -16.812 z"
             style="fill:#bdafc9;fill-opacity:1"
             inkscape:connector-curvature="0" />
        </g>
      </g>
    </g>
  </g>
  <g
     inkscape:groupmode="layer"
     id="layer1"
     inkscape:label="Layer 1"
     transform="translate(-6.6830752,-7.1128321)">
    <g
       id="Copy of text"
       clip-path="url(#Clip1)">
      <path
         style="fill:#ffffff;fill-rule:nonzero;stroke:none"
         id="Copy of  lambda"
         d="M 0,79.1316 23.9261,25.318 21.6498,18.9129 c -1.2477,-3.3287 -2.6641,-5.6486 -4.249,-6.96 -1.5512,-1.3449 -3.6926,-2.01734 -6.4241,-2.01734 -1.88849,0 -3.72638,0.20174 -5.51366,0.60524 V 0.857358 C 7.75616,0.285786 10.2853,0 13.0506,0 c 3.4734,0 6.3904,0.554778 8.7509,1.66433 2.3944,1.07594 4.4346,2.77389 6.1207,5.09387 1.7198,2.31999 3.4903,5.9513 5.3113,10.8938 L 49.5214,62.69 c 0.9779,2.6226 1.9727,4.5559 2.9844,5.7999 1.0117,1.2441 2.2258,1.8661 3.642,1.8661 0.607,0 1.7031,-0.1681 3.288,-0.5043 v 8.9773 c -0.8767,0.4035 -2.0066,0.7229 -3.3892,0.9583 -1.3826,0.2351 -2.664,0.3528 -3.8443,0.3528 -3.035,0 -5.4799,-0.7229 -7.3346,-2.1686 C 43.013,76.492 41.4617,73.9871 40.214,70.4566 35.3917,57.0747 32.4242,48.7026 31.3113,45.3403 30.1984,41.978 29.4902,39.574 29.1867,38.1282 h -0.3035 c -1.1803,4.5392 -2.7989,9.2127 -4.8559,14.0207 L 12.3424,79.1313 Z"
         transform="translate(33.9589,38.993)"
         inkscape:connector-curvature="0" />
    </g>
  </g>
</svg>
